<?xml version="1.0" encoding="UTF-8"?>
<svg width="595.28pt" version="1.1" xmlns="http://www.w3.org/2000/svg" height="841.89pt" viewBox="0 0 595.28 841.89" xmlns:xlink="http://www.w3.org/1999/xlink">
 <defs>
  <path id="GlAbyssinicaSIL8364" d="M3.79391 6.665 L1.82625 6.665 C1.82625 6.665 1.82125 6.74797 1.81641 6.82609 C1.81641 6.82609 1.81156 6.90422 1.81156 6.98234 C1.81156 6.98234 1.81156 7.13859 1.84078 7.33391 L3.71578 7.33391 L3.63766 7.91984 L1.93359 7.91984 C1.93359 7.91984 2.06547 8.40813 2.25828 8.68406 C2.25828 8.68406 2.45125 8.96 2.70516 9.09672 C2.70516 9.09672 2.95906 9.23344 3.27641 9.26766 C3.27641 9.26766 3.59375 9.30172 3.97953 9.30172 C3.97953 9.30172 4.10641 9.30172 4.20156 9.29438 C4.20156 9.29438 4.29688 9.28703 4.38234 9.2725 C4.38234 9.2725 4.46781 9.25781 4.55813 9.23344 C4.55813 9.23344 4.64844 9.20891 4.76078 9.16984 L4.76078 10.0195 C4.76078 10.0195 4.57516 10.0634 4.44328 10.0903 C4.44328 10.0903 4.31156 10.1172 4.21141 10.1294 C4.21141 10.1294 4.11141 10.1416 4.03563 10.1464 C4.03563 10.1464 3.96 10.1514 3.89156 10.1514 L3.71094 10.1514 C3.71094 10.1514 3.20312 10.1514 2.76359 10.0317 C2.76359 10.0317 2.32422 9.91203 1.975 9.64359 C1.975 9.64359 1.62594 9.375 1.37453 8.95266 C1.37453 8.95266 1.12312 8.53031 0.996094 7.91984 L0.488281 7.91984 L0.488281 7.33391 L0.917969 7.33391 C0.917969 7.33391 0.908281 7.21188 0.900938 7.11422 C0.900938 7.11422 0.893594 7.01656 0.893594 6.91891 C0.893594 6.91891 0.893594 6.80656 0.908281 6.665 L0.488281 6.665 L0.488281 6.07906 L0.971719 6.07906 C0.971719 6.07906 1.20609 4.90234 1.91406 4.27734 C1.91406 4.27734 2.62203 3.65234 3.77438 3.65234 C3.77438 3.65234 3.97469 3.65234 4.21391 3.68172 C4.21391 3.68172 4.45312 3.71094 4.76078 3.77922 L4.76078 4.63375 C4.76078 4.63375 4.45312 4.53609 4.14297 4.51656 C4.14297 4.51656 3.83297 4.49703 3.53031 4.48734 C3.53031 4.48734 3.18844 4.49703 2.91984 4.585 C2.91984 4.585 2.65141 4.67281 2.44875 4.86078 C2.44875 4.86078 2.24609 5.04875 2.10688 5.34906 C2.10688 5.34906 1.96781 5.64938 1.88969 6.07906 L3.87203 6.07906 L3.79391 6.665 Z"/>
  <path id="GlAbyssinicaSIL49" d="M2.56844 10 L2.56844 5.05859 C2.56844 5.05859 2.44141 5.17578 2.25828 5.29062 C2.25828 5.29062 2.07516 5.40531 1.875 5.50547 C1.875 5.50547 1.67484 5.60547 1.47953 5.68609 C1.47953 5.68609 1.28422 5.76656 1.13766 5.81047 L1.13766 4.84859 C1.13766 4.84859 1.30375 4.78031 1.52094 4.64359 C1.52094 4.64359 1.73828 4.50687 1.94328 4.35312 C1.94328 4.35312 2.14844 4.19922 2.31438 4.05766 C2.31438 4.05766 2.48047 3.91594 2.53906 3.83781 L3.58891 3.83781 L3.58891 10 L2.56844 10 Z"/>
  <path id="GlAbyssinicaSIL56" d="M4.73141 8.24219 C4.73141 8.24219 4.73141 8.61812 4.57266 8.94047 C4.57266 8.94047 4.41406 9.26266 4.12844 9.49703 C4.12844 9.49703 3.84281 9.73141 3.44969 9.86578 C3.44969 9.86578 3.05672 10 2.58797 10 C2.58797 10 2.085 10 1.68219 9.86578 C1.68219 9.86578 1.27937 9.73141 0.996094 9.49469 C0.996094 9.49469 0.712969 9.25781 0.561562 8.93797 C0.561562 8.93797 0.410156 8.61812 0.410156 8.24219 C0.410156 8.24219 0.410156 7.97844 0.493125 7.73188 C0.493125 7.73188 0.57625 7.48531 0.749531 7.27781 C0.749531 7.27781 0.922813 7.07031 1.18641 6.91406 C1.18641 6.91406 1.45016 6.75781 1.81156 6.66984 C1.81156 6.66984 1.47953 6.59672 1.23531 6.4575 C1.23531 6.4575 0.99125 6.31828 0.8325 6.13031 C0.8325 6.13031 0.673906 5.94234 0.595781 5.71297 C0.595781 5.71297 0.517656 5.48344 0.517656 5.21969 C0.517656 5.21969 0.517656 4.8925 0.661563 4.60687 C0.661563 4.60687 0.805625 4.32125 1.07172 4.10891 C1.07172 4.10891 1.33797 3.89641 1.71625 3.77438 C1.71625 3.77438 2.09469 3.65234 2.56844 3.65234 C2.56844 3.65234 3.07125 3.65234 3.45453 3.77438 C3.45453 3.77438 3.83797 3.89641 4.09672 4.10891 C4.09672 4.10891 4.35547 4.32125 4.48734 4.60687 C4.48734 4.60687 4.61922 4.8925 4.61922 5.21969 C4.61922 5.21969 4.61922 5.44922 4.56297 5.67391 C4.56297 5.67391 4.50687 5.89844 4.36516 6.09141 C4.36516 6.09141 4.22359 6.28422 3.98438 6.43313 C3.98438 6.43313 3.74516 6.58203 3.37891 6.66016 C3.37891 6.66016 3.73047 6.74797 3.98438 6.90422 C3.98438 6.90422 4.23828 7.06047 4.40422 7.27047 C4.40422 7.27047 4.57031 7.48047 4.65078 7.72703 C4.65078 7.72703 4.73141 7.97359 4.73141 8.24219 L4.73141 8.24219 Z M3.61813 5.30766 C3.61813 5.30766 3.61813 5.05375 3.53516 4.86578 C3.53516 4.86578 3.45219 4.67766 3.31047 4.55563 C3.31047 4.55563 3.16891 4.43359 2.98094 4.37266 C2.98094 4.37266 2.79297 4.31156 2.57812 4.31156 C2.57812 4.31156 2.36328 4.31156 2.17766 4.3775 C2.17766 4.3775 1.99219 4.44328 1.85062 4.57281 C1.85062 4.57281 1.70906 4.70219 1.62844 4.88781 C1.62844 4.88781 1.54781 5.07328 1.54781 5.30766 C1.54781 5.30766 1.54781 5.53703 1.62844 5.72016 C1.62844 5.72016 1.70906 5.90328 1.85062 6.03266 C1.85062 6.03266 1.99219 6.16203 2.17766 6.23047 C2.17766 6.23047 2.36328 6.29875 2.57812 6.29875 C2.57812 6.29875 2.79297 6.29875 2.98094 6.23047 C2.98094 6.23047 3.16891 6.16203 3.31047 6.03266 C3.31047 6.03266 3.45219 5.90328 3.53516 5.72016 C3.53516 5.72016 3.61813 5.53703 3.61813 5.30766 L3.61813 5.30766 Z M3.73047 8.15922 C3.73047 8.15922 3.73047 7.89062 3.6425 7.68562 C3.6425 7.68562 3.55469 7.48047 3.40078 7.34375 C3.40078 7.34375 3.24703 7.20703 3.03703 7.13875 C3.03703 7.13875 2.82719 7.07031 2.58797 7.07031 C2.58797 7.07031 2.33891 7.07031 2.12891 7.14109 C2.12891 7.14109 1.91891 7.21188 1.76266 7.35109 C1.76266 7.35109 1.60641 7.49016 1.51844 7.69531 C1.51844 7.69531 1.43063 7.90031 1.43063 8.16891 C1.43063 8.16891 1.43063 8.45703 1.52828 8.67188 C1.52828 8.67188 1.62594 8.88672 1.78703 9.02594 C1.78703 9.02594 1.94828 9.165 2.15094 9.23344 C2.15094 9.23344 2.35359 9.30172 2.56844 9.30172 C2.56844 9.30172 2.78812 9.30172 2.99562 9.23094 C2.99562 9.23094 3.20312 9.16016 3.36672 9.01859 C3.36672 9.01859 3.53031 8.87688 3.63031 8.66203 C3.63031 8.66203 3.73047 8.44719 3.73047 8.15922 Z"/>
  <path id="GlAbyssinicaSIL44" d="M2.38766 9.56047 C2.38766 9.56047 2.38766 9.87797 2.30469 10.1587 C2.30469 10.1587 2.22172 10.4395 2.08984 10.6739 C2.08984 10.6739 1.95797 10.9083 1.79188 11.0913 C1.79188 11.0913 1.62594 11.2744 1.4575 11.4038 C1.4575 11.4038 1.28906 11.5333 1.13516 11.6016 C1.13516 11.6016 0.981406 11.67 0.878906 11.67 C0.878906 11.67 0.795937 11.67 0.764219 11.6358 C0.764219 11.6358 0.7325 11.6016 0.7325 11.5478 C0.7325 11.5478 0.7325 11.5186 0.788594 11.4575 C0.788594 11.4575 0.844688 11.3966 0.942344 11.2989 C0.942344 11.2989 1.24516 11.0059 1.38672 10.7056 C1.38672 10.7056 1.52828 10.4053 1.52828 10 C1.52828 10 1.37203 10 1.24016 9.95609 C1.24016 9.95609 1.10844 9.91203 1.01078 9.82172 C1.01078 9.82172 0.913125 9.73141 0.856875 9.59719 C0.856875 9.59719 0.800781 9.46281 0.800781 9.28219 C0.800781 9.28219 0.800781 9.10156 0.852031 8.95266 C0.852031 8.95266 0.903281 8.80375 1.00344 8.69641 C1.00344 8.69641 1.10359 8.58891 1.24266 8.53031 C1.24266 8.53031 1.38187 8.47172 1.55766 8.47172 C1.55766 8.47172 1.73344 8.47172 1.88719 8.52062 C1.88719 8.52062 2.04109 8.56938 2.15094 8.69141 C2.15094 8.69141 2.26078 8.81344 2.32422 9.02344 C2.32422 9.02344 2.38766 9.23344 2.38766 9.56047 Z"/>
  <path id="GlAbyssinicaSIL45" d="M0.600625 8.07125 L0.600625 7.33891 L3.06156 7.33891 L3.06156 8.07125 L0.600625 8.07125 Z"/>
 </defs>
 <g id="Hintergrund">
  <g transform="translate(-1, -1)">
   <path style="fill:#cccfe3; fill-rule:evenodd;" d="M0 0 L597 0 L597 844 L0 844 L0 0 Z"/>
   <path style="fill:none; stroke:#ffffff; stroke-width:1; stroke-linecap:butt; stroke-linejoin:miter; stroke-dasharray:none;" d="M0 0 L597 0 L597 844 L0 844 L0 0 Z"/>
  </g>
  <g transform="translate(519.375, 787)">
   <use style="fill:#000000;stroke:none;" xlink:href="#GlAbyssinicaSIL8364" transform="matrix(1.2 0 0 1.2 0 -4.38281)"/>
   <use style="fill:#000000;stroke:none;" xlink:href="#GlAbyssinicaSIL49" transform="matrix(1.2 0 0 1.2 11.4316 -4.38281)"/>
   <use style="fill:#000000;stroke:none;" xlink:href="#GlAbyssinicaSIL56" transform="matrix(1.2 0 0 1.2 17.9121 -4.38281)"/>
   <use style="fill:#000000;stroke:none;" xlink:href="#GlAbyssinicaSIL44" transform="matrix(1.2 0 0 1.2 24.3926 -4.38281)"/>
   <use style="fill:#000000;stroke:none;" xlink:href="#GlAbyssinicaSIL45" transform="matrix(1.2 0 0 1.2 28.4707 -4.38281)"/>
   <path style="fill:none; stroke:none;" d="M0 0 L35.625 0 L35.625 12.125 L0 12.125 L0 0 Z"/>
  </g>
  <path style="fill:#000000; fill-rule:nonzero;stroke:#000000; stroke-width:0.032757; stroke-linecap:butt; stroke-linejoin:miter; stroke-dasharray:none;" id=" Auswahl" d="M29.785 3.03133 C29.1462 3.64454 28.1763 3.52956 27.6433 2.84036 C27.3646 2.48003 27.2935 2.103 27.2984 1.66111 C27.3069 0.955521 27.7734 0.256487 28.4777 0.0854957 C28.6247 0.0497906 28.7538 0.0543766 28.9035 0.0560144 C29.2268 0.0599452 29.5016 0.168043 29.7552 0.367861 C30.3464 0.832682 30.5597 1.63228 30.6098 2.349 L30.6393 2.67657 L30.6013 3.20068 C30.4988 4.26758 29.8937 5.16872 28.8707 5.55722 C28.5163 5.69152 28.0626 5.7626 27.6915 5.67613 C27.5575 5.64501 27.2918 5.55427 27.3528 5.36625 C27.3783 5.28632 27.4494 5.25749 27.5277 5.2647 C27.68 5.27878 27.679 5.36756 28.1173 5.36264 C28.4429 5.35871 28.7587 5.2421 29.0345 5.07405 C29.7296 4.65051 30.1234 4.06645 30.2505 3.2662 C30.3061 2.95042 30.3491 2.65954 30.2505 2.349 C30.1433 2.58714 29.9727 2.85117 29.785 3.03133 Z M38.3703 2.44432 C37.8517 1.96149 37.8137 1.24083 38.2314 0.678397 C38.5947 0.189335 39.0683 0.049463 39.6478 0.0560144 C40.6443 0.0678069 41.4717 1.19628 40.9614 2.1197 C40.8801 2.26645 40.7599 2.39224 40.6305 2.49739 C40.5021 2.60221 40.3629 2.69197 40.2047 2.74209 L40.2047 2.8076 C40.9954 3.03362 41.4069 3.95933 41.093 4.7075 C40.8356 5.32268 40.1555 5.75802 39.484 5.72002 C38.9432 5.68923 38.4011 5.43897 38.1066 4.96956 C37.7037 4.32818 37.7967 3.53644 38.403 3.05884 C38.5521 2.94125 38.6782 2.86001 38.8616 2.8076 L38.8616 2.74209 C38.6756 2.68771 38.5118 2.57568 38.3703 2.44432 Z M51.9287 4.80577 C51.5825 5.39278 50.9631 5.69578 50.2938 5.72166 C49.8742 5.73804 49.3193 5.56508 48.9508 5.36985 C48.8306 5.3063 48.5856 5.16938 48.5466 5.03474 C48.5122 4.91715 48.6049 4.79464 48.7543 4.8405 L49.2456 5.1245 C49.5974 5.3004 49.9361 5.36723 50.3266 5.36264 C51.2516 5.3515 52.178 4.38976 51.5795 3.4955 C51.4469 3.29699 51.343 3.20265 51.1455 3.07097 C50.8949 2.90423 50.5618 2.79286 50.2611 2.77582 C50.153 2.76993 49.9725 2.77976 49.9456 2.63956 C49.8952 2.37685 50.3397 2.41615 50.4904 2.41452 C51.2949 2.40502 51.9061 1.53728 51.3575 0.842509 C51.2684 0.729498 51.1403 0.628606 51.0145 0.558834 C50.5536 0.302347 49.9633 0.345586 49.5077 0.590608 C49.2014 0.755376 49.0864 1.01088 48.92 0.97452 C48.8791 0.965348 48.842 0.936849 48.8221 0.900161 C48.7408 0.7521 48.9465 0.558834 49.0494 0.478579 C49.4071 0.19949 49.8077 0.0566695 50.2611 0.0560144 C50.779 0.0553593 51.2729 0.150354 51.6198 0.580453 C52.0562 1.1216 52.0123 1.85044 51.5003 2.32443 C51.3493 2.46431 51.213 2.55439 51.0145 2.61106 L51.0145 2.67657 C51.912 2.9324 52.4158 3.97932 51.9287 4.80577 Z M62.1817 3.03133 C61.5429 3.64454 60.573 3.52956 60.04 2.84036 C59.7613 2.48003 59.6902 2.103 59.6951 1.66111 C59.7036 0.955521 60.1701 0.256487 60.8744 0.0854957 C61.0214 0.0497906 61.1505 0.0543766 61.3002 0.0560144 C61.6235 0.0599452 61.8983 0.168043 62.1519 0.367861 C62.7431 0.832682 62.9564 1.63228 63.0065 2.349 L63.036 2.67657 L62.998 3.20068 C62.8955 4.26758 62.2904 5.16872 61.2674 5.55722 C60.913 5.69152 60.4593 5.7626 60.0882 5.67613 C59.9542 5.64501 59.6885 5.55427 59.7495 5.36625 C59.775 5.28632 59.8461 5.25749 59.9244 5.2647 C60.0767 5.27878 60.0757 5.36756 60.514 5.36264 C60.8396 5.35871 61.1554 5.2421 61.4312 5.07405 C62.1263 4.65051 62.5201 4.06645 62.6472 3.2662 C62.7029 2.95042 62.7458 2.65954 62.6472 2.349 C62.54 2.58714 62.3694 2.85117 62.1817 3.03133 Z M78.9205 4.80577 C78.5743 5.39278 77.9549 5.69578 77.2856 5.72166 C76.866 5.73804 76.3111 5.56508 75.9426 5.36985 C75.8224 5.3063 75.5773 5.16938 75.5384 5.03474 C75.504 4.91715 75.5967 4.79464 75.746 4.8405 L76.2374 5.1245 C76.5892 5.3004 76.9279 5.36723 77.3184 5.36264 C78.2434 5.3515 79.1698 4.38976 78.5713 3.4955 C78.4387 3.29699 78.3348 3.20265 78.1373 3.07097 C77.8867 2.90423 77.5536 2.79286 77.2529 2.77582 C77.1448 2.76993 76.9643 2.77976 76.9374 2.63956 C76.887 2.37685 77.3315 2.41615 77.4822 2.41452 C78.2867 2.40502 78.8979 1.53728 78.3492 0.842509 C78.2601 0.729498 78.1321 0.628606 78.0063 0.558834 C77.5454 0.302347 76.9551 0.345586 76.4995 0.590608 C76.1932 0.755376 76.0782 1.01088 75.9118 0.97452 C75.8708 0.965348 75.8338 0.936849 75.8139 0.900161 C75.7326 0.7521 75.9383 0.558834 76.0412 0.478579 C76.3989 0.19949 76.7995 0.0566695 77.2529 0.0560144 C77.7708 0.0553593 78.2647 0.150354 78.6116 0.580453 C79.048 1.1216 79.0041 1.85044 78.4921 2.32443 C78.3411 2.46431 78.2048 2.55439 78.0063 2.61106 L78.0063 2.67657 C78.9038 2.9324 79.4076 3.97932 78.9205 4.80577 Z M89.1735 3.03133 C88.5347 3.64454 87.5648 3.52956 87.0318 2.84036 C86.7531 2.48003 86.682 2.103 86.6869 1.66111 C86.6954 0.955521 87.1619 0.256487 87.8661 0.0854957 C88.0132 0.0497906 88.1423 0.0543766 88.292 0.0560144 C88.6153 0.0599452 88.8901 0.168043 89.1437 0.367861 C89.7349 0.832682 89.9482 1.63228 89.9983 2.349 L90.0278 2.67657 L89.9898 3.20068 C89.8873 4.26758 89.2822 5.16872 88.2592 5.55722 C87.9048 5.69152 87.4511 5.7626 87.08 5.67613 C86.946 5.64501 86.6803 5.55427 86.7413 5.36625 C86.7668 5.28632 86.8379 5.25749 86.9162 5.2647 C87.0685 5.27878 87.0675 5.36756 87.5058 5.36264 C87.8314 5.35871 88.1472 5.2421 88.423 5.07405 C89.1181 4.65051 89.5119 4.06645 89.639 3.2662 C89.6946 2.95042 89.7376 2.65954 89.639 2.349 C89.5318 2.58714 89.3612 2.85117 89.1735 3.03133 Z M98.8725 0.0612555 L99.0035 0.0612555 C99.1942 0.0569971 99.317 0.0750134 99.4949 0.150027 C100.269 0.476941 100.607 1.43017 100.609 2.21797 L100.609 2.97138 L100.609 3.62652 C100.605 3.89808 100.515 4.28756 100.422 4.54372 C100.211 5.12286 99.8031 5.60308 99.1673 5.69447 C99.0727 5.7079 99.0022 5.72395 98.9053 5.71707 C98.7461 5.70561 98.5613 5.6699 98.4139 5.60996 C97.2818 5.14907 97.2658 3.66812 97.2674 2.64381 L97.2972 2.25073 C97.3277 1.80524 97.3326 1.60378 97.4987 1.16975 C97.7119 0.612883 98.0804 0.203748 98.676 0.0612555 L98.8725 0.0612555 Z M103.496 2.97138 C103.671 2.73521 103.846 2.57568 104.114 2.4512 C104.275 2.37619 104.461 2.34048 104.638 2.32673 C104.731 2.31985 104.778 2.33328 104.867 2.34409 C105.688 2.44203 106.163 3.17382 106.207 3.95409 C106.213 4.06448 106.193 4.17291 106.177 4.28166 C106.01 5.46255 104.799 6.14259 103.786 5.42685 C102.98 4.85753 102.858 3.71071 102.869 2.8076 C102.882 1.72433 103.473 0.714102 104.474 0.262711 C104.836 0.0992536 105.357 0 105.751 0.0710826 C105.888 0.0959779 106.157 0.175577 106.157 0.350172 C106.157 0.446477 106.069 0.501509 105.981 0.497578 C105.866 0.492337 105.714 0.372447 105.391 0.384894 C104.452 0.421255 103.603 1.21921 103.328 2.08695 C103.174 2.57339 103.196 2.9039 103.196 3.39722 C103.309 3.28454 103.395 3.10896 103.496 2.97138 Z M115.054 0.0612555 L115.186 0.0612555 C115.376 0.0569971 115.499 0.0750134 115.677 0.150027 C116.451 0.476941 116.789 1.43017 116.791 2.21797 L116.791 2.97138 L116.791 3.62652 C116.787 3.89808 116.697 4.28756 116.604 4.54372 C116.393 5.12286 115.985 5.60308 115.349 5.69447 C115.255 5.7079 115.184 5.72395 115.087 5.71707 C114.928 5.70561 114.743 5.6699 114.596 5.60996 C113.464 5.14907 113.448 3.66812 113.449 2.64381 L113.479 2.25073 C113.51 1.80524 113.515 1.60378 113.681 1.16975 C113.894 0.612883 114.262 0.203748 114.858 0.0612555 L115.054 0.0612555 Z M72.11 0.612883 L72.11 1.66111 L72.11 5.23161 L73.2565 5.23161 C73.3735 5.23325 73.5746 5.23227 73.5746 5.39638 C73.5746 5.45141 73.552 5.49564 73.5084 5.52872 C73.419 5.59653 73.2342 5.59161 73.1255 5.59194 L70.7015 5.59194 C70.5966 5.59129 70.4371 5.59161 70.349 5.52872 C70.2321 5.44486 70.2533 5.29844 70.4083 5.25029 C70.4948 5.22342 70.7608 5.23161 70.8652 5.23161 L71.7497 5.23161 L71.7497 0.580126 L70.6359 0.921453 C70.5105 0.956503 70.2658 0.998105 70.2946 0.778305 C70.3143 0.62533 70.6078 0.567351 70.7342 0.525422 L72.0773 0.0887714 L72.11 0.612883 Z M35.717 0.154285 L35.717 0.580126 C35.713 0.883128 35.4284 1.65521 35.3245 1.98868 L34.5842 4.34718 L34.2524 5.3954 C34.2046 5.51431 34.0909 5.66008 33.9743 5.51594 C33.8783 5.41145 33.9441 5.24635 33.9743 5.13334 L34.2648 4.21615 L35.0199 1.79213 C35.1309 1.42296 35.3534 0.880835 35.3566 0.514612 L32.7361 0.514612 C32.7361 0.649898 32.7747 1.13732 32.511 1.04986 C32.4114 1.0171 32.3865 0.900816 32.3774 0.809424 L32.3774 0.154285 L35.717 0.154285 Z M64.8134 3.65928 L65.2828 2.84036 L66.3579 1.00597 L66.6854 0.449098 L66.8797 0.187697 L67.1309 0.154285 L67.5895 0.154285 L67.5895 3.72479 C67.6973 3.72479 67.9859 3.70711 68.0668 3.76312 C68.1634 3.83027 68.1513 3.97637 68.0406 4.02812 C67.9649 4.0635 67.6872 4.05236 67.5895 4.05236 L67.5895 5.23161 C67.7029 5.23161 67.9515 5.21556 68.0432 5.26994 C68.1435 5.32956 68.1687 5.45371 68.0707 5.52872 C67.9944 5.58703 67.8464 5.59063 67.7533 5.59194 L66.7379 5.59194 C66.6383 5.59063 66.4421 5.58375 66.3729 5.50284 C66.3055 5.42357 66.3402 5.28632 66.4774 5.23849 L67.262 5.23849 L67.262 4.05236 L64.8134 4.05236 L64.8134 3.65928 Z M84.3284 0.154285 L84.3284 0.580126 C84.3245 0.883128 84.0398 1.65521 83.936 1.98868 L83.1956 4.34718 L82.8638 5.3954 C82.816 5.51431 82.7023 5.66008 82.5857 5.51594 C82.4897 5.41145 82.5556 5.24635 82.5857 5.13334 L82.8763 4.21615 L83.6313 1.79213 C83.7424 1.42296 83.9648 0.880835 83.9681 0.514612 L81.3475 0.514612 C81.3475 0.649898 81.3861 1.13732 81.1225 1.04986 C81.0229 1.0171 80.998 0.900816 80.9888 0.809424 L80.9888 0.154285 L84.3284 0.154285 Z M27.627 1.75938 C27.627 2.39126 28.06 3.06147 28.7397 3.06965 C29.3087 3.07621 29.7103 2.75617 30.0022 2.28349 C30.067 2.17834 30.1925 1.97557 30.2056 1.85765 C30.2226 1.70271 30.1178 1.4436 30.0546 1.30078 C29.8001 0.725239 29.3696 0.330845 28.707 0.393084 C28.0096 0.508716 27.627 1.07181 27.627 1.75938 Z M38.6379 0.726222 C38.5416 0.814993 38.4702 0.922108 38.4122 1.03872 C38.3218 1.21921 38.3048 1.33157 38.3048 1.53008 C38.3048 2.25761 39.0058 2.68935 39.6806 2.60156 C39.8853 2.57502 40.0582 2.52294 40.2374 2.41845 C40.8074 2.08662 40.9427 1.35057 40.5214 0.842181 C40.2348 0.49594 39.8273 0.351155 39.3857 0.393084 C39.0972 0.440909 38.858 0.524111 38.6379 0.726222 Z M60.0237 1.75938 C60.0237 2.39126 60.4567 3.06147 61.1364 3.06965 C61.7054 3.07621 62.107 2.75617 62.3989 2.28349 C62.4637 2.17834 62.5892 1.97557 62.6023 1.85765 C62.6193 1.70271 62.5145 1.4436 62.4513 1.30078 C62.1968 0.725239 61.7663 0.330845 61.1037 0.393084 C60.4063 0.508716 60.0237 1.07181 60.0237 1.75938 Z M87.0154 1.75938 C87.0154 2.39126 87.4485 3.06147 88.1282 3.06965 C88.6972 3.07621 89.0988 2.75617 89.3907 2.28349 C89.4555 2.17834 89.581 1.97557 89.5941 1.85765 C89.6111 1.70271 89.5063 1.4436 89.4431 1.30078 C89.1885 0.725239 88.7581 0.330845 88.0954 0.393084 C87.398 0.508716 87.0154 1.07181 87.0154 1.75938 Z M97.8027 1.39905 C97.6123 1.94937 97.6277 2.30871 97.6277 2.87311 C97.6277 3.40247 97.6064 3.6904 97.7588 4.21615 C97.9268 4.79529 98.2233 5.35445 98.9053 5.36264 C99.601 5.3705 99.9004 4.96333 100.106 4.34718 C100.284 3.81062 100.281 3.42343 100.281 2.87311 C100.281 2.30085 100.289 1.95821 100.1 1.39905 C99.8906 0.775685 99.5162 0.322984 98.807 0.393411 C98.217 0.504785 97.9884 0.862818 97.8027 1.39905 Z M113.985 1.39905 C113.794 1.94937 113.81 2.30871 113.81 2.87311 C113.81 3.40247 113.788 3.6904 113.941 4.21615 C114.109 4.79529 114.405 5.35445 115.087 5.36264 C115.783 5.3705 116.082 4.96333 116.288 4.34718 C116.466 3.81062 116.463 3.42343 116.463 2.87311 C116.463 2.30085 116.471 1.95821 116.282 1.39905 C116.073 0.775685 115.698 0.322984 114.989 0.393411 C114.399 0.504785 114.17 0.862818 113.985 1.39905 Z M5.57492 5.48614 C5.51006 5.58998 5.38329 5.58965 5.31909 5.48614 C5.27912 5.4216 5.28567 5.30663 5.28567 5.23161 L5.28567 4.41269 C5.28633 4.30197 5.27716 4.1562 5.41801 4.13 C5.45667 4.12279 5.50056 4.12967 5.53364 4.15162 C5.62274 4.21058 5.62897 4.43955 5.68269 4.57647 C5.75279 4.75631 5.92051 4.93418 6.07184 5.05047 C6.81707 5.62503 8.34649 5.44617 8.59741 4.41269 C8.71042 3.94721 8.42281 3.53513 8.00451 3.34842 C7.28156 3.02576 6.15341 3.19839 5.66402 2.44727 C5.54445 2.26383 5.48713 2.04272 5.48287 1.82489 C5.46944 1.14682 5.96702 0.652191 6.59596 0.487096 C7.03949 0.370481 7.55836 0.399962 7.97175 0.606659 C8.16207 0.701982 8.29244 0.8222 8.46311 0.940452 C8.46311 0.858232 8.4523 0.689862 8.49652 0.623037 C8.55876 0.530008 8.71173 0.529352 8.76644 0.650553 C8.79297 0.708861 8.79035 0.810407 8.79068 0.874938 L8.79068 1.56283 C8.79035 1.69124 8.79002 1.98605 8.56858 1.9022 C8.44935 1.85699 8.43919 1.63916 8.40513 1.53008 C8.35108 1.35778 8.24003 1.20775 8.10147 1.09343 C7.56982 0.655467 6.67162 0.648588 6.17044 1.1383 C5.98078 1.32371 5.82911 1.58151 5.85335 1.85765 C5.90839 2.48462 6.49113 2.69 7.0218 2.78303 C7.76735 2.91373 8.69699 2.99333 8.94038 3.85582 C8.98853 4.02649 8.98918 4.10707 8.98722 4.28166 C8.97313 5.50448 7.48269 5.92934 6.49768 5.63387 C6.04367 5.4976 5.96276 5.34987 5.61324 5.10059 C5.61324 5.20181 5.62635 5.40293 5.57492 5.48614 Z M67.0173 0.547041 L66.561 1.26802 L65.5776 2.93863 L65.1328 3.72479 L67.262 3.72479 L67.262 0.514612 L67.0173 0.547041 Z M0.404877 0.874938 C0.330191 0.874611 0.216852 0.879197 0.152975 0.836613 C0.0524112 0.769133 0.0678071 0.616158 0.180491 0.567023 C0.234213 0.543438 0.344276 0.547369 0.404877 0.547369 L3.02544 0.547369 C3.10668 0.547369 3.24164 0.540162 3.3101 0.585694 C3.38937 0.638761 3.48076 0.86937 3.09095 0.874938 L1.9117 0.874938 L1.9117 5.23161 L3.0582 5.23161 C3.17514 5.23325 3.37627 5.23227 3.37627 5.39638 C3.37627 5.45141 3.35366 5.49564 3.3101 5.52872 C3.22067 5.59653 3.03592 5.59161 2.92717 5.59194 L0.535905 5.59194 C0.424859 5.59161 0.215541 5.59358 0.126442 5.52184 C0.0455323 5.45698 0 5.23686 0.37212 5.23161 L1.55137 5.23161 L1.55137 0.874938 L0.404877 0.874938 Z M10.3352 0.841526 C10.2382 0.783874 10.2133 0.654157 10.3116 0.585694 C10.3781 0.539835 10.5127 0.547369 10.5923 0.547369 L12.8853 0.547369 C13.3079 0.549334 13.7802 0.735721 14.0475 1.07148 C14.5438 1.69485 14.3315 2.58289 13.5732 2.87311 L13.5732 2.93863 C13.9417 3.03821 14.3554 3.28651 14.5444 3.62652 C14.9221 4.30557 14.5402 5.1851 13.8353 5.45862 C13.4576 5.60537 13.0537 5.59194 12.656 5.5867 L11.0837 5.5867 L10.4292 5.5867 C10.3257 5.55296 10.2212 5.49039 10.2595 5.36592 C10.3194 5.17331 10.7872 5.23161 10.9526 5.23161 L10.9526 0.874938 C10.8272 0.874938 10.4253 0.895248 10.3352 0.841526 Z M15.5763 0.850698 C15.4551 0.795994 15.4557 0.643019 15.5488 0.580781 C15.6094 0.54049 15.7293 0.547369 15.8007 0.547369 L16.3903 0.547369 C16.4637 0.547369 16.5724 0.539507 16.635 0.579798 C16.7061 0.625658 16.8132 0.827768 16.8627 0.907695 L17.301 1.62835 L18.5719 3.72479 L19.404 5.06783 L19.404 0.874938 C19.2641 0.874938 18.68 0.891644 18.5899 0.850698 C18.4743 0.798615 18.4642 0.651536 18.5624 0.585694 C18.6309 0.540162 18.7658 0.547369 18.8471 0.547369 L19.9608 0.547369 C20.081 0.548024 20.2737 0.539835 20.2737 0.711154 C20.2737 0.762582 20.2514 0.807132 20.2088 0.836613 C20.1279 0.892627 19.8393 0.874938 19.7315 0.874938 L19.7315 5.59194 L19.3126 5.55853 L19.0702 5.23161 L18.5981 4.44545 L17.2485 2.21797 L16.5213 1.07148 L16.5213 5.23161 L17.0782 5.23161 C17.1961 5.23227 17.3717 5.22605 17.4169 5.36592 C17.4847 5.57491 17.1725 5.5903 17.0454 5.59194 L16.03 5.59194 C15.9369 5.59063 15.7889 5.58703 15.7126 5.52872 C15.6146 5.45371 15.6398 5.32956 15.7401 5.26994 C15.8318 5.21556 16.0804 5.23161 16.1938 5.23161 L16.1938 0.874938 C16.0752 0.874938 15.6608 0.889024 15.5763 0.850698 Z M12.4267 2.77484 C12.8604 2.77484 13.2309 2.79122 13.606 2.51967 C14.0462 2.20061 14.0967 1.58413 13.7029 1.20578 C13.4694 0.981726 13.1051 0.878869 12.787 0.874938 L11.313 0.874938 L11.313 2.77484 L12.4267 2.77484 Z M103.459 3.52825 C103.41 3.61014 103.293 3.80243 103.279 3.88858 C103.26 3.9993 103.357 4.2702 103.4 4.37993 C103.609 4.91223 103.996 5.35544 104.605 5.36264 C104.796 5.36461 104.917 5.36362 105.096 5.28599 C106.146 4.83296 106.111 3.01659 104.965 2.70704 C104.826 2.66936 104.682 2.67231 104.539 2.6864 C104.053 2.78139 103.706 3.11289 103.459 3.52825 Z M38.3791 3.52825 C37.8684 4.34652 38.5232 5.3515 39.4513 5.36264 C39.7451 5.36592 39.9013 5.36002 40.1719 5.22277 C40.8759 4.86572 41.1009 3.96785 40.5591 3.36479 C40.2689 3.04214 39.8096 2.90849 39.3857 2.94813 C38.9678 3.012 38.6146 3.15089 38.3791 3.52825 Z M44.2665 2.90587 L46.5595 2.90587 C46.6915 2.9062 46.9379 2.88916 46.9595 3.07064 C46.9657 3.12469 46.9474 3.16891 46.9054 3.20298 C46.8209 3.27111 46.6319 3.2662 46.5268 3.2662 L43.2838 3.2662 C43.1964 3.26587 43.0732 3.26914 42.9965 3.22328 C42.8341 3.126 42.9153 2.98612 43.0558 2.92454 L44.2665 2.90587 Z M55.0764 2.90587 L57.3694 2.90587 C57.5014 2.9062 57.7477 2.88916 57.7693 3.07064 C57.7755 3.12469 57.7572 3.16891 57.7153 3.20298 C57.6308 3.27111 57.4417 3.2662 57.3366 3.2662 L54.0936 3.2662 C54.0062 3.26587 53.883 3.26914 53.8064 3.22328 C53.6439 3.126 53.7251 2.98612 53.8657 2.92454 L55.0764 2.90587 Z M92.878 2.90587 L95.171 2.90587 C95.303 2.9062 95.5493 2.88916 95.5709 3.07064 C95.5771 3.12469 95.5588 3.16891 95.5169 3.20298 C95.4324 3.27111 95.2434 3.2662 95.1382 3.2662 L91.8953 3.2662 C91.8078 3.26587 91.6846 3.26914 91.608 3.22328 C91.4455 3.126 91.5267 2.98612 91.6673 2.92454 L92.878 2.90587 Z M109.06 2.90587 L111.353 2.90587 C111.485 2.9062 111.731 2.88916 111.753 3.07064 C111.759 3.12469 111.741 3.16891 111.699 3.20298 C111.614 3.27111 111.425 3.2662 111.32 3.2662 L108.077 3.2662 C107.99 3.26587 107.867 3.26914 107.79 3.22328 C107.627 3.126 107.709 2.98612 107.849 2.92454 L109.06 2.90587 Z M13.1801 5.23161 C14.0574 5.2303 14.6598 4.43628 14.1969 3.72479 C14.1275 3.61833 14.004 3.49189 13.9008 3.41786 C13.6037 3.20527 13.2106 3.13582 12.8525 3.13517 L11.313 3.13517 L11.313 5.23161 L13.1801 5.23161 Z M13.9008 7.59012 L13.9008 84.569 L12.9836 84.569 L12.9836 7.59012 L13.9008 7.59012 Z M15.7679 7.59012 L15.7679 84.569 L14.8507 84.569 L14.8507 7.59012 L15.7679 7.59012 Z M19.5022 7.59012 L19.5022 79.5572 L16.7179 79.5572 L16.7179 7.59012 L19.5022 7.59012 Z M22.3193 7.59012 L22.3193 79.5572 L20.4522 79.5572 L20.4522 7.59012 L22.3193 7.59012 Z M26.0536 7.59012 L26.0536 79.5572 L25.1364 79.5572 L25.1364 7.59012 L26.0536 7.59012 Z M28.8707 7.59012 L28.8707 79.5572 L27.9535 79.5572 L27.9535 7.59012 L28.8707 7.59012 Z M30.7379 7.59012 L30.7379 79.5572 L29.8207 79.5572 L29.8207 7.59012 L30.7379 7.59012 Z M35.4221 7.59012 L35.4221 79.5572 L34.5049 79.5572 L34.5049 7.59012 L35.4221 7.59012 Z M39.1564 7.59012 L39.1564 79.5572 L38.2392 79.5572 L38.2392 7.59012 L39.1564 7.59012 Z M41.9735 7.59012 L41.9735 79.5572 L40.1064 79.5572 L40.1064 7.59012 L41.9735 7.59012 Z M46.6578 7.59012 L46.6578 79.5572 L43.8735 79.5572 L43.8735 7.59012 L46.6578 7.59012 Z M48.525 7.59012 L48.525 79.5572 L47.6078 79.5572 L47.6078 7.59012 L48.525 7.59012 Z M52.2593 7.59012 L52.2593 79.5572 L50.4249 79.5572 L50.4249 7.59012 L52.2593 7.59012 Z M55.0764 7.59012 L55.0764 79.5572 L54.1592 79.5572 L54.1592 7.59012 L55.0764 7.59012 Z M56.9435 7.59012 L56.9435 84.569 L56.0263 84.569 L56.0263 7.59012 L56.9435 7.59012 Z M58.8107 7.59012 L58.8107 84.569 L57.8935 84.569 L57.8935 7.59012 L58.8107 7.59012 Z M60.6778 7.59012 L60.6778 79.5572 L59.7606 79.5572 L59.7606 7.59012 L60.6778 7.59012 Z M65.3621 7.59012 L65.3621 79.5572 L64.4449 79.5572 L64.4449 7.59012 L65.3621 7.59012 Z M67.2292 7.59012 L67.2292 79.5572 L66.312 79.5572 L66.312 7.59012 L67.2292 7.59012 Z M70.9963 7.59012 L70.9963 79.5572 L70.0791 79.5572 L70.0791 7.59012 L70.9963 7.59012 Z M75.6478 7.59012 L75.6478 79.5572 L72.8634 79.5572 L72.8634 7.59012 L75.6478 7.59012 Z M77.5477 7.59012 L77.5477 79.5572 L76.6305 79.5572 L76.6305 7.59012 L77.5477 7.59012 Z M82.1992 7.59012 L82.1992 79.5572 L79.4476 79.5572 L79.4476 7.59012 L82.1992 7.59012 Z M85.0163 7.59012 L85.0163 79.5572 L84.0991 79.5572 L84.0991 7.59012 L85.0163 7.59012 Z M86.8834 7.59012 L86.8834 79.5572 L85.999 79.5572 L85.999 7.59012 L86.8834 7.59012 Z M88.7506 7.59012 L88.7506 79.5572 L87.8661 79.5572 L87.8661 7.59012 L88.7506 7.59012 Z M95.302 7.59012 L95.302 79.5572 L92.5504 79.5572 L92.5504 7.59012 L95.302 7.59012 Z M98.1191 7.59012 L98.1191 79.5572 L97.2019 79.5572 L97.2019 7.59012 L98.1191 7.59012 Z M99.9862 7.59012 L99.9862 84.569 L99.1018 84.569 L99.1018 7.59012 L99.9862 7.59012 Z M101.853 7.59012 L101.853 84.569 L100.969 84.569 L100.969 7.59012 L101.853 7.59012 Z M11.4057 84.1009 C10.7243 84.7593 9.65612 84.7351 9.0298 84.0121 C8.65572 83.58 8.55515 83.126 8.56138 82.5708 C8.57284 81.5871 9.39734 80.6421 10.4285 80.742 C10.7109 80.7692 10.9736 80.8642 11.2147 81.0139 C11.9422 81.4653 12.3186 82.6337 12.3284 83.4552 C12.3327 83.8172 12.3392 84.1779 12.2813 84.5362 C12.1198 85.5386 11.5894 86.3342 10.6906 86.8233 C10.2346 87.0716 9.82973 87.1591 9.31479 87.1568 C9.11071 87.1558 8.53484 87.0801 8.60953 86.7673 C8.63115 86.6772 8.70322 86.6395 8.79133 86.6431 L9.11825 86.7414 C9.24174 86.7696 9.38456 86.765 9.51133 86.7637 C10.3581 86.7535 11.2301 86.0414 11.6114 85.3224 C11.746 85.0685 11.84 84.7521 11.8993 84.4707 C11.9609 84.1448 12.032 83.6682 11.8993 83.357 C11.7929 83.6115 11.6052 83.9083 11.4057 84.1009 Z M25.8502 83.1932 C25.6481 82.9108 25.6239 82.6746 25.6278 82.3415 C25.6389 81.3879 26.5558 80.7164 27.4622 80.7367 C28.3535 80.757 29.177 81.4561 29.198 82.3743 C29.2026 82.5832 29.1698 82.805 29.083 82.9966 C28.9127 83.373 28.5455 83.641 28.1828 83.8156 L28.7725 84.2185 C29.1328 84.5303 29.3018 84.9509 29.2966 85.4207 C29.2943 85.6077 29.2514 85.836 29.1832 86.0103 C28.6139 87.4647 26.41 87.563 25.7054 86.1741 C25.5479 85.8635 25.5279 85.6614 25.5295 85.3224 C25.5318 84.8612 25.7333 84.4812 26.0864 84.1864 L26.6433 83.8156 C26.3498 83.6845 26.0379 83.4556 25.8502 83.1932 Z M35.0589 84.1815 C35.8293 84.9293 35.6462 86.0787 34.8325 86.7087 C34.3507 87.0814 33.8498 87.1637 33.2602 87.1568 C32.7698 87.1509 32.2025 86.9229 31.7861 86.6743 C31.6633 86.6006 31.4392 86.4463 31.4913 86.2759 C31.5067 86.2252 31.5444 86.1852 31.5938 86.1669 C31.7448 86.1108 32.0989 86.3932 32.2447 86.4735 C32.6329 86.6867 33.0843 86.7686 33.5222 86.7637 C34.5934 86.7509 35.6387 85.626 34.9049 84.6017 C34.7794 84.4262 34.5898 84.2591 34.4067 84.1451 C34.1787 84.0033 33.856 83.8811 33.5877 83.8539 L33.2929 83.828 C33.1645 83.8028 33.0407 83.7491 33.079 83.5895 C33.1056 83.4795 33.1953 83.4628 33.2929 83.4565 L33.9153 83.412 C34.4483 83.3226 34.9622 82.8047 34.9278 82.2432 C34.9128 81.9969 34.8007 81.7666 34.633 81.5884 C34.1525 81.0787 33.3555 81.023 32.7361 81.289 C32.5693 81.3608 32.4445 81.4351 32.3102 81.5583 C32.2228 81.6385 32.1019 81.7853 31.9827 81.8053 C31.848 81.8275 31.6826 81.7031 31.8513 81.4574 C31.9954 81.2477 32.3374 81.0309 32.5723 80.9333 C33.2284 80.6604 34.0254 80.6535 34.636 81.0492 C35.3933 81.5396 35.564 82.5439 34.9576 83.2259 C34.747 83.4624 34.5521 83.5542 34.2756 83.6845 C34.5603 83.807 34.8348 83.964 35.0589 84.1815 Z M40.8215 84.1009 C40.1401 84.7593 39.0719 84.7351 38.4456 84.0121 C38.0715 83.58 37.971 83.126 37.9772 82.5708 C37.9887 81.5871 38.8131 80.6421 39.8443 80.742 C40.1267 80.7692 40.3894 80.8642 40.6305 81.0139 C41.358 81.4653 41.7344 82.6337 41.7442 83.4552 C41.7485 83.8172 41.7551 84.1779 41.6971 84.5362 C41.5356 85.5386 41.0052 86.3342 40.1064 86.8233 C39.6504 87.0716 39.2455 87.1591 38.7306 87.1568 C38.5265 87.1558 37.9507 87.0801 38.0253 86.7673 C38.047 86.6772 38.119 86.6395 38.2071 86.6431 L38.5341 86.7414 C38.6576 86.7696 38.8004 86.765 38.9271 86.7637 C39.7739 86.7535 40.6459 86.0414 41.0272 85.3224 C41.1618 85.0685 41.2558 84.7521 41.3151 84.4707 C41.3767 84.1448 41.4478 83.6682 41.3151 83.357 C41.2087 83.6115 41.021 83.9083 40.8215 84.1009 Z M65.785 84.1815 C66.5554 84.9293 66.3723 86.0787 65.5586 86.7087 C65.0768 87.0814 64.5759 87.1637 63.9863 87.1568 C63.4959 87.1509 62.9285 86.9229 62.5122 86.6743 C62.3894 86.6006 62.1653 86.4463 62.2174 86.2759 C62.2328 86.2252 62.2705 86.1852 62.3199 86.1669 C62.4709 86.1108 62.825 86.3932 62.9708 86.4735 C63.359 86.6867 63.8104 86.7686 64.2483 86.7637 C65.3195 86.7509 66.3648 85.626 65.631 84.6017 C65.5055 84.4262 65.3159 84.2591 65.1328 84.1451 C64.9048 84.0033 64.5821 83.8811 64.3138 83.8539 L64.019 83.828 C63.8906 83.8028 63.7668 83.7491 63.8051 83.5895 C63.8317 83.4795 63.9214 83.4628 64.019 83.4565 L64.6414 83.412 C65.1744 83.3226 65.6883 82.8047 65.6539 82.2432 C65.6389 81.9969 65.5268 81.7666 65.3591 81.5884 C64.8786 81.0787 64.0816 81.023 63.4622 81.289 C63.2954 81.3608 63.1706 81.4351 63.0363 81.5583 C62.9489 81.6385 62.828 81.7853 62.7087 81.8053 C62.5741 81.8275 62.4087 81.7031 62.5774 81.4574 C62.7215 81.2477 63.0635 81.0309 63.2984 80.9333 C63.9545 80.6604 64.7515 80.6535 65.3621 81.0492 C66.1194 81.5396 66.2901 82.5439 65.6837 83.2259 C65.4731 83.4624 65.2782 83.5542 65.0017 83.6845 C65.2864 83.807 65.5609 83.964 65.785 84.1815 Z M77.6731 84.1009 C76.9918 84.7593 75.9236 84.7351 75.2973 84.0121 C74.9232 83.58 74.8226 83.126 74.8288 82.5708 C74.8403 81.5871 75.6648 80.6421 76.696 80.742 C76.9784 80.7692 77.2411 80.8642 77.4822 81.0139 C78.2097 81.4653 78.5861 82.6337 78.5959 83.4552 C78.6002 83.8172 78.6067 84.1779 78.5487 84.5362 C78.3872 85.5386 77.8569 86.3342 76.9581 86.8233 C76.5021 87.0716 76.0972 87.1591 75.5823 87.1568 C75.3782 87.1558 74.8023 87.0801 74.877 86.7673 C74.8986 86.6772 74.9707 86.6395 75.0588 86.6431 L75.3857 86.7414 C75.5092 86.7696 75.652 86.765 75.7788 86.7637 C76.6256 86.7535 77.4976 86.0414 77.8789 85.3224 C78.0135 85.0685 78.1075 84.7521 78.1668 84.4707 C78.2284 84.1448 78.2995 83.6682 78.1668 83.357 C78.0603 83.6115 77.8726 83.9083 77.6731 84.1009 Z M84.2527 82.0139 C84.3772 82.3248 84.4882 82.8912 84.4922 83.2259 L84.4922 84.1104 C84.4922 84.8402 84.4948 85.3931 84.1718 86.0758 C83.8944 86.6618 83.3699 87.1486 82.6905 87.1568 L82.5267 87.1568 C81.6544 87.1463 81.093 86.4283 80.8702 85.65 C80.6976 85.0476 80.7251 84.7482 80.7251 84.1431 L80.7251 83.1932 C80.7264 82.3556 81.0972 81.3228 81.8716 80.9107 C82.0501 80.8157 82.2005 80.7869 82.3957 80.7508 C83.2972 80.6352 83.935 81.2206 84.2527 82.0139 Z M87.7404 84.0776 C88.2786 83.3409 89.2518 83.0563 90.0281 83.6121 C90.6348 84.0462 90.8225 84.645 90.8143 85.3551 C90.8035 86.2586 90.0808 87.1456 89.1437 87.1568 C88.6415 87.1627 88.2766 87.0316 87.9002 86.6887 C87.3469 86.1849 87.0482 85.1383 87.0472 84.4052 C87.0462 83.7681 87.0466 83.281 87.2785 82.6691 C87.6847 81.5986 88.7699 80.7633 89.9298 80.7367 C90.1316 80.7321 90.4838 80.7701 90.6485 80.8904 C90.8081 81.0067 90.8094 81.1858 90.6783 81.2409 C90.5624 81.2897 90.4317 81.2143 90.3229 81.1826 C90.202 81.1469 90.0235 81.1259 89.8971 81.1308 C89.0782 81.1626 88.2582 81.7525 87.8481 82.4398 C87.6483 82.7749 87.5278 83.1368 87.4691 83.5207 C87.4102 83.8562 87.3542 84.2434 87.4691 84.569 C87.5251 84.3901 87.6306 84.2276 87.7404 84.0776 Z M96.4711 82.0139 C96.5956 82.3248 96.7066 82.8912 96.7105 83.2259 L96.7105 84.1104 C96.7105 84.8402 96.7132 85.3931 96.3902 86.0758 C96.1127 86.6618 95.5883 87.1486 94.9089 87.1568 L94.7451 87.1568 C93.8728 87.1463 93.3113 86.4283 93.0886 85.65 C92.916 85.0476 92.9435 84.7482 92.9435 84.1431 L92.9435 83.1932 C92.9448 82.3556 93.3156 81.3228 94.09 80.9107 C94.2685 80.8157 94.4189 80.7869 94.6141 80.7508 C95.5156 80.6352 96.1533 81.2206 96.4711 82.0139 Z M52.0627 81.2605 L52.0627 82.145 L52.0627 85.2569 L52.0627 86.3051 C52.063 86.3883 52.0522 86.5174 52.1151 86.5802 C52.178 86.6431 52.3071 86.6323 52.3903 86.6327 L53.4713 86.6327 C53.6147 86.6346 53.7985 86.6595 53.7507 86.8587 C53.7078 87.0372 53.4172 87.0254 53.2747 87.0257 L50.4249 87.0257 C50.263 87.0238 49.9522 87.0136 50.0098 86.7673 C50.0462 86.6124 50.2372 86.633 50.3593 86.6327 L51.4403 86.6327 C51.5229 86.631 51.6172 86.6343 51.669 86.557 C51.7093 86.4964 51.7024 86.3768 51.7024 86.3051 L51.7024 85.4207 L51.7024 82.7018 C51.7024 82.3913 51.7312 81.5792 51.6696 81.326 L50.3593 81.7551 C50.2087 81.7909 49.9201 81.7578 50.0341 81.5262 C50.1045 81.382 50.4406 81.3142 50.5886 81.2697 L52.03 80.8019 C52.0837 80.9369 52.0627 81.1151 52.0627 81.2605 Z M23.0727 80.8674 L23.0727 81.3915 C23.0711 81.7591 22.7383 82.6327 22.6148 83.0294 L21.8172 85.5844 L21.4221 86.8292 C21.3353 87.0385 21.1666 87.0641 21.0805 86.9199 C21.0097 86.802 21.0896 86.5904 21.1293 86.4689 L21.4565 85.4207 L22.3331 82.6036 C22.453 82.1941 22.6783 81.6782 22.6797 81.2605 L19.6988 81.2605 C19.6988 81.3866 19.7181 81.7149 19.6604 81.8125 C19.5861 81.9379 19.4184 81.9379 19.344 81.8125 C19.306 81.7479 19.3067 81.6611 19.3057 81.5881 L19.3057 80.8674 L23.0727 80.8674 Z M43.7981 84.7983 L44.3645 83.8156 L45.5375 81.8174 L45.9041 81.195 L46.1117 80.9008 L46.363 80.8674 L46.9199 80.8674 L46.9199 84.8965 C47.0417 84.8965 47.3437 84.8785 47.4391 84.9349 C47.5645 85.0092 47.5645 85.1769 47.4391 85.2513 C47.3437 85.3076 47.0417 85.2896 46.9199 85.2896 L46.9199 86.3378 C46.9205 86.442 46.9094 86.5635 47.023 86.613 C47.1537 86.67 47.6038 86.5442 47.5314 86.8603 C47.4934 87.0254 47.251 87.0241 47.1164 87.0257 L46.0027 87.0257 C45.8513 87.0254 45.4281 87.0271 45.5061 86.7657 C45.5503 86.6182 45.7177 86.633 45.8389 86.6327 L46.5268 86.6327 L46.5268 85.2896 L43.7752 85.2896 L43.7981 84.7983 Z M72.1428 80.8674 L72.1428 81.3915 C72.1411 81.7591 71.8083 82.6327 71.6848 83.0294 L70.8872 85.5844 L70.4921 86.8292 C70.4053 87.0385 70.2366 87.0641 70.1505 86.9199 C70.0797 86.802 70.1597 86.5904 70.1993 86.4689 L70.5265 85.4207 L71.4031 82.6036 C71.523 82.1941 71.7484 81.6782 71.7497 81.2605 L68.7688 81.2605 C68.7688 81.3866 68.7881 81.7149 68.7305 81.8125 C68.6564 81.9376 68.4881 81.9376 68.414 81.8125 C68.376 81.7479 68.3767 81.6611 68.3757 81.5881 L68.3757 80.8674 L72.1428 80.8674 Z M8.95446 82.5708 L8.95446 82.7673 C8.95806 83.5624 9.59421 84.2863 10.4285 84.1661 C10.9582 84.0897 11.3903 83.6662 11.6536 83.2259 C11.7156 83.1224 11.8479 82.9131 11.8613 82.8001 C11.877 82.6674 11.7762 82.4057 11.7283 82.276 C11.4623 81.5566 10.9392 81.0591 10.1337 81.1393 C9.42125 81.2739 8.96298 81.8505 8.95446 82.5708 Z M26.4153 81.4996 C25.9213 81.9419 25.8738 82.7349 26.3301 83.2204 C26.5863 83.4929 26.9951 83.6361 27.3639 83.6505 C28.2939 83.6865 29.1269 82.8437 28.6965 81.9157 C28.6231 81.7578 28.536 81.6451 28.4118 81.5239 C28.27 81.3857 28.1383 81.3002 27.9535 81.2297 C27.7259 81.1436 27.4743 81.1161 27.2329 81.139 C26.9296 81.1894 26.6482 81.291 26.4153 81.4996 Z M38.3703 82.5708 L38.3703 82.7673 C38.3739 83.5624 39.01 84.2863 39.8443 84.1661 C40.374 84.0897 40.8061 83.6662 41.0695 83.2259 C41.1314 83.1224 41.2637 82.9131 41.2771 82.8001 C41.2929 82.6674 41.192 82.4057 41.1441 82.276 C40.8782 81.5566 40.355 81.0591 39.5495 81.1393 C38.8371 81.2739 38.3788 81.8505 38.3703 82.5708 Z M75.2219 82.5708 L75.2219 82.7673 C75.2255 83.5624 75.8617 84.2863 76.696 84.1661 C77.2257 84.0897 77.6577 83.6662 77.9211 83.2259 C77.983 83.1224 78.1154 82.9131 78.1288 82.8001 C78.1445 82.6674 78.0436 82.4057 77.9958 82.276 C77.7298 81.5566 77.2067 81.0591 76.4012 81.1393 C75.6887 81.2739 75.2304 81.8505 75.2219 82.5708 Z M81.3413 82.1777 C81.0995 82.8021 81.1182 83.1712 81.1182 83.8156 L81.1182 84.7 C81.1211 84.9381 81.1912 85.2565 81.2587 85.4862 C81.4523 86.1436 81.7887 86.7548 82.5595 86.7637 C83.3378 86.7725 83.6742 86.3012 83.9025 85.6172 C84.1253 84.9493 84.0991 84.6256 84.0991 83.9466 C84.0991 83.2951 84.1187 82.9144 83.9025 82.276 C83.6667 81.5802 83.2612 81.0633 82.4612 81.139 C81.8179 81.2458 81.566 81.5979 81.3413 82.1777 Z M93.5596 82.1777 C93.3179 82.8021 93.3366 83.1712 93.3366 83.8156 L93.3366 84.7 C93.3395 84.9381 93.4096 85.2565 93.4771 85.4862 C93.6707 86.1436 94.0071 86.7548 94.7779 86.7637 C95.5562 86.7725 95.8926 86.3012 96.1209 85.6172 C96.3437 84.9493 96.3175 84.6256 96.3175 83.9466 C96.3175 83.2951 96.3371 82.9144 96.1209 82.276 C95.8851 81.5802 95.4795 81.0633 94.6796 81.139 C94.0363 81.2458 93.7844 81.5979 93.5596 82.1777 Z M46.2821 81.2929 L46.1006 81.5553 L45.7924 82.0794 L44.6921 83.9466 L44.1683 84.8965 L46.5268 84.8965 L46.5268 81.2605 L46.2821 81.2929 Z M87.7289 84.6672 C87.664 84.773 87.5399 84.9748 87.5199 85.0931 C87.4953 85.2359 87.5982 85.5114 87.6506 85.65 C87.8789 86.2524 88.3287 86.7555 89.0126 86.7637 C89.2803 86.7666 89.4601 86.7519 89.7005 86.6156 C90.6721 86.065 90.6823 84.3747 89.6678 83.8572 C89.4591 83.7507 89.2459 83.7055 89.0126 83.7268 C88.442 83.8215 88.026 84.1824 87.7289 84.6672 Z M26.1018 84.7 C25.9242 84.9876 25.9187 85.1635 25.9226 85.4862 C25.9311 86.1931 26.6174 86.7555 27.2984 86.7637 C27.7871 86.7693 28.1894 86.6762 28.5402 86.3048 C29.1672 85.6405 28.967 84.5968 28.1501 84.188 C27.9165 84.0714 27.6545 84.0363 27.3967 84.0268 C26.8532 84.072 26.4087 84.2024 26.1018 84.7 Z" transform="translate(36.25, 715.75)"/>
 </g>
</svg>
